<?xml version="1.0" encoding="UTF-8"?>
<svg width="776px" height="390px" viewBox="0 0 776 390" version="1.1" xmlns="http://www.w3.org/2000/svg" xmlns:xlink="http://www.w3.org/1999/xlink">
    <title>PHP Trans</title>
    <defs>
        <filter id="filter-1">
            <feColorMatrix in="SourceGraphic" type="matrix" values="0 0 0 0 0.775528 0 0 0 0 0.140470 0 0 0 0 0.140470 0 0 0 1.000000 0"></feColorMatrix>
        </filter>
    </defs>
     <mask id="php" fill="#FFFFFF" fill-rule="nonzero">
        <path d="M61.6573392,83 L177.210954,83 C211.126965,83.2827557 235.703667,92.9933949 250.941059,112.11576 C266.178451,131.238125 271.206058,157.356675 266.032016,190.471409 C264.0226,205.602879 259.564463,220.443515 252.66574,235.001395 C246.051751,249.559275 236.858877,262.687219 225.070847,274.393305 C210.695795,289.233941 195.320103,298.653746 178.935635,302.65272 C162.551167,306.651693 145.589094,308.647141 128.057551,308.647141 L76.3171262,308.647141 L59.9326584,390 L0,390 L61.6573392,83 L61.6573392,83 M112.104253,131.811715 L86.2340408,260.263598 C87.9587217,260.546354 89.6834025,260.691771 91.4080833,260.691771 C93.4174992,260.691771 95.4350503,260.691771 97.4444662,260.691771 C125.039359,260.974527 148.037815,258.268151 166.431699,252.556485 C184.825582,246.562064 197.191219,225.727007 203.512336,190.043236 C208.686379,160.07113 203.512336,142.798795 187.990209,138.23431 C172.752817,133.669824 153.643028,131.52896 130.644572,131.811715 C127.19521,132.094471 123.892284,132.239888 120.727657,132.239888 C117.855901,132.239888 114.837709,132.239888 111.673083,132.239888 L112.104253,131.811715" id="Shape"></path>
        <path d="M333.737447,0 L392.902499,0 L376.181941,82.1991643 L429.344742,82.1991643 C458.498536,82.7756872 480.218275,88.8007568 494.512047,100.274373 C509.088944,111.74799 513.376267,133.558417 507.374015,165.689415 L478.648953,309 L418.626435,309 L446.065301,172.144847 C448.920819,157.796736 448.063355,147.614206 443.492907,141.589136 C438.922459,135.564067 429.061617,132.551532 413.910381,132.551532 L366.321099,132.12117 L331.165053,309 L272,309 L333.737447,0 L333.737447,0" id="Path"></path>
        <path d="M569.657339,83 L685.210954,83 C719.126965,83.2827557 743.703667,92.9933949 758.941059,112.11576 C774.178451,131.238125 779.206058,157.356675 774.032016,190.471409 C772.0226,205.602879 767.564463,220.443515 760.66574,235.001395 C754.051751,249.559275 744.858877,262.687219 733.070847,274.393305 C718.695795,289.233941 703.320103,298.653746 686.935635,302.65272 C670.551167,306.651693 653.589094,308.647141 636.057551,308.647141 L584.317126,308.647141 L567.932658,390 L508,390 L569.657339,83 L569.657339,83 M620.104253,131.811715 L594.234041,260.263598 C595.958722,260.546354 597.683402,260.691771 599.408083,260.691771 C601.417499,260.691771 603.43505,260.691771 605.444466,260.691771 C633.039359,260.974527 656.037815,258.268151 674.431699,252.556485 C692.825582,246.562064 705.191219,225.727007 711.512336,190.043236 C716.686379,160.07113 711.512336,142.798795 695.990209,138.23431 C680.752817,133.669824 661.643028,131.52896 638.644572,131.811715 C635.19521,132.094471 631.892284,132.239888 628.727657,132.239888 C625.855901,132.239888 622.837709,132.239888 619.673083,132.239888 L620.104253,131.811715" id="Shape"></path>
    </mask>
    <g id="Transgender_Pride_flag" fill-rule="nonzero" mask="url(#php)">
        <polygon id="Path" fill="#5BCEFA" points="0 0 788 0 788 390 0 390"></polygon>
        <polygon id="Path" fill="#F5A9B8" points="0 78 788 78 788 312 0 312"></polygon>
        <polygon id="Path" fill="#FFFFFF" points="0 156 788 156 788 234 0 234"></polygon>
    </g>
</svg>